<svg id="Layer_1" data-name="Layer 1" xmlns="http://www.w3.org/2000/svg" viewBox="0 0 318.92 90.03"><defs><style>.cls-1{fill:#003063;}.cls-2{fill:#1d71b8;}.cls-3{fill:#1d1d1b;}</style></defs><title>PayGate  - A DPO Company</title><path class="cls-1" d="M258.09,71.89l6-17.78,6,17.78Zm2-23.71-15.4,39.64h7.63l3.93-10.32h15.46l3.93,10.32h8.08L268.63,48.18ZM324.34,70h14.48v-5.7H324.27V54.11h17.46l1-5.85H316.88V87.82h26.55V81.74H324.34ZM224.84,72h8.24v9.86a14.34,14.34,0,0,1-6.16,1.3,16.14,16.14,0,0,1-7.62-1.93c-3.54-2-5.31-6.14-5.31-12.68A24.84,24.84,0,0,1,215.68,59c1.54-3.7,5.16-5.62,10.39-5.62A16.55,16.55,0,0,1,236,56.5L239.69,52A22.29,22.29,0,0,0,226,47.72c-12.85,0-20.09,8.08-20.09,20.31s7.54,20.33,20.62,20.33A28.61,28.61,0,0,0,240.47,85V66.19h-16.7Zm55-17.85h11.77V87.82H299V54.11h11.93l1-5.85h-32ZM115.1,67.35h-6.54V54h5.38c5,0,9.47.84,9.47,6.61,0,5.07-3.39,6.7-8.31,6.7m10.09-17.16c-2.47-1.32-4.55-1.93-11.94-1.93h-12V87.82h7.31V73h6.7c5.38,0,8.46-1,11.54-3.31a11.28,11.28,0,0,0,4.77-9.46c0-4.39-2.39-7.85-6.38-10M188,61.34a43.25,43.25,0,0,0-2.46,5.47,49.51,49.51,0,0,0-2.46-5.47l-7.31-13.08h-9l14.7,23.55v16h7.62v-16L204,48.26h-8.54ZM145,71.89l6-17.78,6,17.78Zm2-23.71-15.4,39.64h7.61L143.1,77.5h15.48l3.92,10.32h8.08L155.5,48.18Z" transform="translate(-24.51 -28.17)"/><path class="cls-1" d="M67.16,62.65,52.94,74.24,38.73,85.82h0L24.51,74.35V97.42l11.59,9.41.33.27a3.64,3.64,0,0,0,4.38,0s40.46-34.38,40.47-39l0-16.93Z" transform="translate(-24.51 -28.17)"/><polygon class="cls-2" points="0 0 0 23.09 14.07 34.48 28.29 22.9 13.98 11.32 0 0"/><path class="cls-3" d="M195.54,109.32H188.6L187,113.61h-1.36l5.79-15.28h1.22l5.79,15.28h-1.35ZM189,108.23h6.13l-3.06-8.32Z" transform="translate(-24.51 -28.17)"/><path class="cls-3" d="M205.56,113.61V98.33h4.51a7.13,7.13,0,0,1,3.6.9,6.25,6.25,0,0,1,2.43,2.56,8.21,8.21,0,0,1,.86,3.8v.77a8.06,8.06,0,0,1-.87,3.82,6,6,0,0,1-2.46,2.54,7.47,7.47,0,0,1-3.67.89Zm2.66-13.14v11H210a3.94,3.94,0,0,0,3.2-1.31,5.64,5.64,0,0,0,1.14-3.75v-.85a5.87,5.87,0,0,0-1.08-3.8,3.84,3.84,0,0,0-3.14-1.31Z" transform="translate(-24.51 -28.17)"/><path class="cls-3" d="M222.26,107.94v5.67H219.6V98.33h5.85a5.93,5.93,0,0,1,4.07,1.34,4.47,4.47,0,0,1,1.5,3.53,4.33,4.33,0,0,1-1.47,3.49,6.18,6.18,0,0,1-4.13,1.25Zm0-2.14h3.19a3.17,3.17,0,0,0,2.16-.66,2.46,2.46,0,0,0,.75-1.93,2.68,2.68,0,0,0-.76-2,3,3,0,0,0-2.08-.76h-3.26Z" transform="translate(-24.51 -28.17)"/><path class="cls-3" d="M245.54,106.37a9.33,9.33,0,0,1-.78,3.94,5.86,5.86,0,0,1-2.22,2.6,6.49,6.49,0,0,1-6.63,0,5.92,5.92,0,0,1-2.25-2.58,9,9,0,0,1-.8-3.88v-.86a9.24,9.24,0,0,1,.79-3.94A5.9,5.9,0,0,1,235.89,99a6,6,0,0,1,3.31-.91,6.13,6.13,0,0,1,3.31.9,6,6,0,0,1,2.23,2.58,9.39,9.39,0,0,1,.8,3.92Zm-2.66-.8a6.67,6.67,0,0,0-1-3.89,3.14,3.14,0,0,0-2.72-1.35,3.11,3.11,0,0,0-2.69,1.34,6.58,6.58,0,0,0-1,3.82v.88a6.63,6.63,0,0,0,1,3.89,3.18,3.18,0,0,0,2.73,1.38,3.13,3.13,0,0,0,2.71-1.34,6.83,6.83,0,0,0,.95-3.93Z" transform="translate(-24.51 -28.17)"/><path class="cls-3" d="M264.73,108.85a5.42,5.42,0,0,1-1.73,3.69,5.7,5.7,0,0,1-3.89,1.28,5.36,5.36,0,0,1-3-.85,5.53,5.53,0,0,1-2-2.41,8.38,8.38,0,0,1-.72-3.56v-2a8.58,8.58,0,0,1,.71-3.61A5.46,5.46,0,0,1,256.12,99a5.6,5.6,0,0,1,3.08-.86,5.48,5.48,0,0,1,3.88,1.32,5.55,5.55,0,0,1,1.65,3.67h-1.3q-.48-3.9-4.23-3.9a4,4,0,0,0-3.31,1.56,6.74,6.74,0,0,0-1.23,4.29v1.87a6.78,6.78,0,0,0,1.2,4.22,3.84,3.84,0,0,0,3.25,1.58,4.28,4.28,0,0,0,3.05-1,4.64,4.64,0,0,0,1.27-2.91Z" transform="translate(-24.51 -28.17)"/><path class="cls-3" d="M266.88,107.77a6.56,6.56,0,0,1,.64-3,4.76,4.76,0,0,1,4.42-2.77,4.66,4.66,0,0,1,3.67,1.59,6.11,6.11,0,0,1,1.41,4.21v.26a6.67,6.67,0,0,1-.64,3,4.77,4.77,0,0,1-1.78,2,5,5,0,0,1-2.64.71,4.68,4.68,0,0,1-3.67-1.59,6.11,6.11,0,0,1-1.41-4.21Zm1.26.34a5.15,5.15,0,0,0,1.06,3.35,3.58,3.58,0,0,0,5.52,0,5.38,5.38,0,0,0,1-3.45v-.24a5.83,5.83,0,0,0-.48-2.39,3.78,3.78,0,0,0-1.36-1.67,3.57,3.57,0,0,0-4.73.72,5.32,5.32,0,0,0-1.06,3.45Z" transform="translate(-24.51 -28.17)"/><path class="cls-3" d="M280.76,102.26l0,1.84a4.21,4.21,0,0,1,1.57-1.54,4.35,4.35,0,0,1,2.1-.51,3.18,3.18,0,0,1,3.41,2.2,4.25,4.25,0,0,1,1.63-1.63,4.52,4.52,0,0,1,2.24-.57q3.66,0,3.73,4v7.58h-1.26v-7.48a3.4,3.4,0,0,0-.65-2.26,2.7,2.7,0,0,0-2.11-.73,3.34,3.34,0,0,0-2.29.87,3.12,3.12,0,0,0-1,2.09v7.51h-1.26V106a3.07,3.07,0,0,0-.68-2.17,2.74,2.74,0,0,0-2.09-.72,3.14,3.14,0,0,0-2,.67,4,4,0,0,0-1.26,2v7.79h-1.26V102.26Z" transform="translate(-24.51 -28.17)"/><path class="cls-3" d="M307.79,108.05a6.79,6.79,0,0,1-1.18,4.21,3.73,3.73,0,0,1-3.14,1.56,4.17,4.17,0,0,1-3.57-1.64V118h-1.25V102.26h1.17l.06,1.6a4,4,0,0,1,3.56-1.81,3.77,3.77,0,0,1,3.19,1.54,7,7,0,0,1,1.16,4.28Zm-1.26-.22a5.87,5.87,0,0,0-.89-3.43,2.88,2.88,0,0,0-2.49-1.26,3.29,3.29,0,0,0-3.25,2.17v5.45a3.37,3.37,0,0,0,1.29,1.49,3.74,3.74,0,0,0,2,.51,2.84,2.84,0,0,0,2.47-1.26A6.32,6.32,0,0,0,306.53,107.83Z" transform="translate(-24.51 -28.17)"/><path class="cls-3" d="M317.74,113.61a5.52,5.52,0,0,1-.24-1.58,4.34,4.34,0,0,1-1.69,1.32,5,5,0,0,1-2.16.47,3.79,3.79,0,0,1-2.65-.91,3,3,0,0,1-1-2.31,3,3,0,0,1,1.38-2.62,6.6,6.6,0,0,1,3.85-1h2.28v-1.29a2.51,2.51,0,0,0-.75-1.92,3.13,3.13,0,0,0-2.19-.69,3.39,3.39,0,0,0-2.17.67,2,2,0,0,0-.86,1.61h-1.26a2.91,2.91,0,0,1,1.26-2.34,4.85,4.85,0,0,1,3.09-1,4.39,4.39,0,0,1,3,1,3.4,3.4,0,0,1,1.13,2.65V111a6.74,6.74,0,0,0,.34,2.47v.12Zm-3.95-.9a4.17,4.17,0,0,0,2.25-.61,3.56,3.56,0,0,0,1.45-1.63V108h-2.25a5.65,5.65,0,0,0-2.94.68,2.09,2.09,0,0,0-1.06,1.83,2,2,0,0,0,.71,1.59A2.67,2.67,0,0,0,313.79,112.71Z" transform="translate(-24.51 -28.17)"/><path class="cls-3" d="M323.28,102.26l0,1.94a4.54,4.54,0,0,1,1.6-1.6,4.1,4.1,0,0,1,2.11-.55,3.44,3.44,0,0,1,2.72,1,4.71,4.71,0,0,1,.9,3.09v7.45H329.4v-7.46a3.47,3.47,0,0,0-.65-2.27,2.54,2.54,0,0,0-2-.74,3.17,3.17,0,0,0-2.06.73,4.24,4.24,0,0,0-1.33,2v7.77h-1.25V102.26Z" transform="translate(-24.51 -28.17)"/><path class="cls-3" d="M337.49,111.81l3.32-9.55h1.35l-4.85,13.28-.25.59a3,3,0,0,1-2.89,2.07,3.41,3.41,0,0,1-1-.15v-1l.65.06a2.34,2.34,0,0,0,1.49-.45,3.48,3.48,0,0,0,1-1.57l.55-1.53-4.28-11.26H334Z" transform="translate(-24.51 -28.17)"/></svg>